<?xml version="1.0" encoding="UTF-8"?>
<svg width="623px" height="560px" viewBox="0 0 623 560" version="1.1" xmlns="http://www.w3.org/2000/svg" xmlns:xlink="http://www.w3.org/1999/xlink">
    <title>Hero / mobile app lady with coffee</title>
    <defs>
        <polygon id="path-1" points="0.720972222 0.314912093 279.227807 0.314912093 279.227807 297.634636 0.720972222 297.634636"></polygon>
        <polygon id="path-3" points="0.468994444 0.212251395 80.4582444 0.212251395 80.4582444 236.392776 0.468994444 236.392776"></polygon>
        <polygon id="path-5" points="-0.00265833333 0.0924268605 293.386314 0.0924268605 293.386314 262.984636 -0.00265833333 262.984636"></polygon>
        <polygon id="path-7" points="0 648.17257 622.514806 648.17257 622.514806 0.570516279 0 0.570516279"></polygon>
    </defs>
    <g id="Mobile-app" stroke="none" stroke-width="1" fill="none" fill-rule="evenodd">
        <g id="Large" transform="translate(-966.000000, -232.000000)">
            <g id="Group" transform="translate(842.000000, 100.000000)">
                <g id="Lady-with-coffee" transform="translate(124.055556, 43.513953)">
                    <g id="Group-9" transform="translate(440.638889, 88.873221)" fill="#FFFFFF">
                        <polygon id="Fill-1" points="0.596111111 81.7941453 55.4463889 81.7941453 55.4463889 0.574545349 0.596111111 0.574545349"></polygon>
                        <polygon id="Fill-3" points="71.1893611 81.7949512 126.040444 81.7949512 126.040444 0.575351163 71.1893611 0.575351163"></polygon>
                        <polygon id="Fill-5" points="0.596111111 178.762573 55.4463889 178.762573 55.4463889 97.5429733 0.596111111 97.5429733"></polygon>
                        <polygon id="Fill-7" points="71.1893611 178.762573 126.040444 178.762573 126.040444 97.5429733 71.1893611 97.5429733"></polygon>
                    </g>
                    <g id="Group-55" transform="translate(135.333333, 130.775547)">
                        <path d="M256.258419,147.901672 C272.795669,115.323419 264.369558,86.1384495 255.623642,69.1647844 C251.197114,60.573196 248.397003,51.2910251 244.597197,42.4286833 C241.263003,34.650967 236.121142,27.409117 230.332419,21.2639798 C221.569586,11.9600519 210.299864,4.8705007 197.876586,1.87690186 C156.339725,-8.13533651 117.326669,25.5952298 106.241419,63.6933077 C104.277475,70.4428053 103.100558,77.4251833 102.812169,84.4502693 C101.867253,107.443365 106.421864,129.998097 115.013919,151.089472 C118.560781,159.797903 127.958392,176.46697 132.823142,184.624225 C138.836614,194.708181 143.608725,197.357697 152.266836,205.269179 C152.292614,205.293353 152.319197,205.316722 152.345781,205.341702 C152.345781,205.341702 271.814503,210.092781 271.814503,210.092781 C286.556975,165.332233 246.935725,166.269395 256.258419,147.901672" id="Fill-10" fill="#6B6055"></path>
                        <g id="Group-14" transform="translate(15.305556, 149.881395)">
                            <mask id="mask-2" fill="white">
                                <use xlink:href="#path-1"></use>
                            </mask>
                            <g id="Clip-13"></g>
                            <path d="M274.213528,373.664633 C269.840167,348.298416 263.329667,327.060383 253.85875,304.280828 L233.508,259.246304 L236.064028,195.15992 L253.615472,160.082033 L253.614667,70.1934865 L196.048056,37.187347 C181.9025,27.5079098 191.029444,0.314912093 191.029444,0.314912093 L135.284194,4.36815628 C134.582556,17.008154 132.865111,31.5700179 111.804667,36.485483 C100.576028,39.10599 83.5610833,41.9263388 70.1211944,43.9892226 C56.7658889,46.0384074 44.9701389,53.8048423 37.79425,65.2554586 C24.1416944,87.0422505 31.9523611,126.615774 12.0664167,161.878998 L34.1362222,175.504506 L50.7274444,155.869238 C50.7274444,155.869238 95.0475,235.223378 97.1081111,256.291384 C98.5524722,271.061148 95.6919444,288.695581 93.8520556,297.92618 L118.684917,325.041013 L71.4060556,347.281478 L71.804,347.674716 C61.3986389,375.404385 55.3988611,404.699752 54.1808611,434.49714 L46.0391111,661.154071 L21.7193889,738.649199 L0.720972222,929.950238 L38.7931389,929.105745 L97.1081111,719.851171 L103.521139,671.196931 L175.374278,439.385207 L190.849806,668.984971 L180.901194,709.899369 L177.314056,929.950238 L211.853056,915.575323 L274.601806,491.167618 C280.757056,452.233105 280.910917,412.5097 274.213528,373.664633" id="Fill-12" fill="#EEB1A3" mask="url(#mask-2)"></path>
                        </g>
                        <g id="Group-17" transform="translate(253.750000, 211.123256)">
                            <mask id="mask-4" fill="white">
                                <use xlink:href="#path-3"></use>
                            </mask>
                            <g id="Clip-16"></g>
                            <path d="M61.5043278,210.499072 L57.2920778,177.492933 C57.2920778,177.492933 47.5190778,86.9323374 42.9894389,43.9349107 C41.6006611,30.7614642 33.9309667,19.0973072 22.3970222,12.5871363 L0.468994444,0.212251395 L2.53363333,80.5817177 L15.1703833,208.392675 L57.2920778,374.125236 L80.4582444,374.125236 L61.5043278,210.499072 Z" id="Fill-15" fill="#EEB1A3" mask="url(#mask-4)"></path>
                        </g>
                        <path d="M190.952594,188.775859 C196.794483,188.72751 202.445456,186.67752 207.683983,183.461516 C199.074206,171.948046 206.335483,150.195905 206.335483,150.195905 L150.589428,154.249149 C150.516122,155.575518 150.424289,156.924451 150.306678,158.279024 C152.3254,162.099388 154.745289,165.741667 157.576817,169.13495 C166.291317,179.577493 178.261067,188.877392 190.952594,188.775859" id="Fill-18" fill="#E89785"></path>
                        <g id="Group-22" transform="translate(12.083333, 184.531395)">
                            <mask id="mask-6" fill="white">
                                <use xlink:href="#path-5"></use>
                            </mask>
                            <g id="Clip-21"></g>
                            <path d="M293.386314,76.3183978 C293.386314,63.0764571 286.163703,50.8893269 274.548397,44.5354838 L226.807953,18.326385 C155.505008,59.4237024 120.739647,0.0924268605 120.739647,0.0924268605 C100.874647,1.33096291 77.5328694,6.1352257 63.2390917,12.0901908 C14.5174806,32.3870327 -0.00265833333,119.481016 -0.00265833333,119.481016 L63.2390917,148.271137 L73.4994528,204.894878 C79.3083139,236.957409 78.3295639,269.851541 70.7267306,301.536145 C49.8708972,388.455268 3.94295278,637.646786 3.94295278,637.646786 L253.530647,637.646786 C253.530647,637.646786 284.411619,434.159423 286.101675,375.492138 C287.792536,316.823242 239.286008,160.510645 239.286008,160.510645 L293.386314,88.6046431 L293.386314,76.3183978 Z" id="Fill-20" fill="#5DBC68" mask="url(#mask-6)"></path>
                        </g>
                        <polygon id="Fill-23" fill="#5DBC68" points="75.3226667 332.802613 0.308527778 311.305109 2.842 282.369941 50.4197222 305.834438"></polygon>
                        <path d="M251.369261,345.041638 C251.369261,345.041638 319.376678,286.895715 319.376678,286.895715 L318.89415,262.98238 L285.372567,266.519097" id="Fill-25" fill="#5DBC68"></path>
                        <path d="M247.663222,86.1990467 C242.013861,80.8540828 234.493194,90.3022514 234.493194,90.3022514 C234.493194,90.3022514 244.855861,28.1796363 182.495389,28.1796363 C120.134111,28.1796363 130.495972,90.3022514 130.495972,90.3022514 C130.495972,90.3022514 122.975306,80.8540828 117.32675,86.1990467 C112.354861,90.9033886 126.410194,127.743591 135.730472,126.926496 C137.406833,137.97904 141.967889,148.533591 149.278306,157.438641 C157.907417,167.95129 169.80225,177.346275 182.495389,177.346275 C195.186917,177.346275 207.08175,167.95129 215.711667,157.438641 C223.021278,148.533591 227.582333,137.97904 229.258694,126.926496 C238.579778,127.743591 252.635111,90.9033886 247.663222,86.1990467" id="Fill-27" fill="#EEB1A3"></path>
                        <path d="M192.287561,127.258974 C191.646339,127.361313 187.575061,130.059984 182.495228,130.059984 C177.413783,130.059984 173.342506,127.361313 172.702089,127.258974 C169.864117,126.805301 167.499811,125.41366 167.499811,125.41366 C167.499811,125.41366 174.264867,139.230147 182.543561,139.230147 C190.823061,139.230147 197.489839,125.41366 197.489839,125.41366 C197.489839,125.41366 195.124728,126.805301 192.287561,127.258974" id="Fill-29" fill="#E89785"></path>
                        <path d="M224.818956,93.2582187 C218.77165,81.640799 200.826289,83.9897466 192.603983,92.0640024 C192.001428,92.6554699 192.429983,93.8440455 193.320122,93.7948908 C198.836567,93.4894873 203.728706,90.584528 209.229039,90.1236024 C214.16065,89.7102199 219.861567,91.2759164 223.778983,94.2985245 C224.429067,94.8005466 225.133928,93.863385 224.818956,93.2582187" id="Fill-31" fill="#392B1D"></path>
                        <path d="M203.255361,101.201852 C202.549694,102.106781 202.111472,103.230892 202.111472,104.46701 C202.111472,107.413872 204.499944,109.80311 207.446667,109.80311 C210.392583,109.80311 212.781056,107.413872 212.781056,104.46701 C212.781056,103.339677 212.427417,102.296953 211.8305,101.435538 C210.801,101.861814 210.32975,101.201852 208.742,101.201852 C206.883583,101.201852 204.288889,101.761087 203.255361,101.201852" id="Fill-33" fill="#474143"></path>
                        <path d="M200.113372,103.127828 C202.986789,101.729741 206.138122,101.263175 209.233872,102.25352 C211.455594,102.964248 213.169817,104.518663 215.230428,105.546076 C215.846678,105.853897 216.423456,105.242284 216.140706,104.636312 C213.322872,98.6201048 204.2934,99.1624176 199.442344,101.978737 C198.693178,102.413071 199.351317,103.498502 200.113372,103.127828" id="Fill-35" fill="#474143"></path>
                        <path d="M141.210667,94.2985245 C145.128083,91.2759164 150.829806,89.7102199 155.759806,90.1236024 C161.260139,90.584528 166.153083,93.4894873 171.669528,93.7948908 C172.558056,93.8440455 172.990639,92.6578873 172.385667,92.0640024 C164.160139,83.9873292 146.219611,81.6367699 140.170694,93.2582187 C139.855722,93.863385 140.559778,94.8005466 141.210667,94.2985245" id="Fill-37" fill="#392B1D"></path>
                        <path d="M161.734289,101.201852 C162.439956,102.106781 162.877372,103.230892 162.877372,104.46701 C162.877372,107.413872 160.489706,109.80311 157.542983,109.80311 C154.597067,109.80311 152.208594,107.413872 152.208594,104.46701 C152.208594,103.339677 152.562233,102.296953 153.15915,101.435538 C154.18865,101.861814 154.659094,101.201852 156.24765,101.201852 C158.106067,101.201852 160.700761,101.761087 161.734289,101.201852" id="Fill-39" fill="#474143"></path>
                        <path d="M165.547306,101.978979 C160.693833,99.1602419 151.665972,98.6203465 148.848944,104.636553 C148.566194,105.240914 149.142167,105.854944 149.759222,105.546317 C151.819028,104.518905 153.5405,102.962072 155.755778,102.253762 C158.850722,101.263416 161.990778,101.724342 164.876278,103.12807 C165.637528,103.498744 166.297278,102.414119 165.547306,101.978979" id="Fill-41" fill="#474143"></path>
                        <path d="M188.112689,145.129752 C184.965383,144.501217 182.2273,147.4787 182.2273,147.4787 C182.2273,147.4787 179.490022,144.501217 176.342717,145.129752 C170.255133,146.346531 162.063439,146.380375 160.374994,146.041934 L164.333494,151.365946 L167.450994,152.605288 L182.2273,154.044472 L197.004411,152.605288 L199.673217,151.544031 L204.614494,145.042724 C202.92605,145.381166 194.200272,146.346531 188.112689,145.129752" id="Fill-43" fill="#E89785"></path>
                        <path d="M194.756106,151.83356 C189.949356,152.03179 186.451633,152.619229 182.2273,152.619229 C178.002967,152.619229 174.505244,152.03179 169.6993,151.83356 C164.258578,151.608738 160.374994,146.042175 160.374994,146.042175 C160.374994,146.042175 167.612106,160.76359 182.2273,160.76359 C196.842494,160.76359 204.614494,145.042966 204.614494,145.042966 C204.614494,145.042966 200.196022,151.608738 194.756106,151.83356" id="Fill-45" fill="#EAA191"></path>
                        <path d="M181.733494,27.482446 C181.733494,56.7286577 124.485078,59.0324798 130.496133,90.3020902 L118.461939,69.8819588 L132.9708,37.5946053 L172.359244,15.91821 L181.733494,27.482446 Z" id="Fill-47" fill="#6B6055"></path>
                        <path d="M180.925603,27.482446 C180.925603,56.7286577 241.874742,62.3338995 234.493436,90.3020902 L242.826908,66.5805391 L229.688297,37.5946053 L190.299853,15.91821 L180.925603,27.482446 Z" id="Fill-49" fill="#6B6055"></path>
                        <path d="M150.752231,60.0219387 C124.069814,79.398541 128.497147,102.763117 135.730231,126.926254 L144.493064,172.354821 L117.907314,152.415761 L106.241258,63.6932271 L144.493064,28.1793945" id="Fill-51" fill="#6B6055"></path>
                        <path d="M203.732089,172.355063 C203.732089,189.207856 215.125061,235.195658 260.557589,248.18135 C275.819644,252.543221 301.438728,263.448301 302.52945,275.444454 C302.52945,275.444454 313.621144,242.697786 292.717783,226.395364 C271.814422,210.092942 275.261394,203.813234 275.13895,196.380406" id="Fill-53" fill="#6B6055"></path>
                    </g>
                    <g id="Group-87" transform="translate(0.000000, 0.233686)">
                        <path d="M600.765611,611.877823 C555.246889,632.970003 442.754278,647.908182 311.180472,647.908182 C179.606667,647.908182 67.0979444,632.970003 21.5945278,611.877823 C67.0979444,590.785643 179.606667,575.848269 311.180472,575.848269 C442.754278,575.848269 555.246889,590.785643 600.765611,611.877823" id="Fill-56" fill="#905C3C"></path>
                        <mask id="mask-8" fill="white">
                            <use xlink:href="#path-7"></use>
                        </mask>
                        <g id="Clip-59"></g>
                        <polygon id="Fill-58" fill="#0A0005" mask="url(#mask-8)" points="0 647.908263 622.344833 647.908263 622.344833 591.01538 0 591.01538"></polygon>
                        <path d="M622.344833,591.015622 C622.344833,598.379956 614.696889,605.410682 600.765611,611.878145 C555.246889,632.96952 442.754278,647.908505 311.180472,647.908505 C179.606667,647.908505 67.0979444,632.96952 21.5945278,611.878145 C7.64794444,605.410682 0,598.379956 0,591.015622 C0,559.59613 139.329694,534.122739 311.180472,534.122739 C483.03125,534.122739 622.344833,559.59613 622.344833,591.015622" id="Fill-60" fill="#FEEE80" mask="url(#mask-8)"></path>
                        <polygon id="Fill-61" fill="#E89785" mask="url(#mask-8)" points="151.360022 495.473888 157.032744 447.977602 196.107022 459.174387 168.167133 516.872277"></polygon>
                        <polygon id="Fill-62" fill="#0A0205" mask="url(#mask-8)" points="204.942033 524.972722 216.722478 536.791595 249.718033 535.232345 212.403089 545.234914 193.693256 520.428737"></polygon>
                        <path d="M268.473542,337.473756 L338.581847,340.145835 C339.688681,340.188543 340.636014,340.954872 340.907486,342.029022 L341.982097,346.265186 L264.616542,343.315907 L266.010153,339.173217 C266.363792,338.124047 267.365903,337.431047 268.473542,337.473756" id="Fill-63" fill="#FFFFFF" mask="url(#mask-8)"></path>
                        <path d="M285.666675,344.118578 L264.616703,343.315987 L266.010314,339.173298 C266.363953,338.124128 267.366064,337.431128 268.473703,337.473836 L278.991036,337.874326 L288.465981,341.877609 C288.465981,341.877609 287.369619,342.754335 285.666675,344.118578" id="Fill-64" fill="#FFFFFF" mask="url(#mask-8)"></path>
                        <path d="M276.372497,436.223758 L323.190581,438.008635 C325.071553,438.080353 326.713275,436.745119 327.027442,434.88933 L341.943108,346.738924 C342.194442,345.252197 341.082775,343.883119 339.575581,343.825906 L267.202053,341.065994 C265.695664,341.008781 264.482497,342.290025 264.620247,343.791256 L272.783747,432.819999 C272.956136,434.695934 274.492331,436.15204 276.372497,436.223758" id="Fill-65" fill="#FFDD00" mask="url(#mask-8)"></path>
                        <path d="M296.534264,359.070939 C296.431958,361.764775 298.531236,364.03153 301.225014,364.134674 C303.917986,364.237013 306.184014,362.137062 306.287125,359.44242 C306.389431,356.748584 304.289347,354.481829 301.596375,354.378685 C298.903403,354.276346 296.636569,356.376298 296.534264,359.070939" id="Fill-66" fill="#C2BFC1" mask="url(#mask-8)"></path>
                        <path d="M297.271347,359.462082 C297.185153,361.740923 298.961403,363.658761 301.239514,363.745788 C303.517625,363.832816 305.435653,362.055997 305.522653,359.777155 C305.609653,357.497507 303.832597,355.57967 301.553681,355.491836 C299.275569,355.405614 297.358347,357.18324 297.271347,359.462082" id="Fill-67" fill="#0A0005" mask="url(#mask-8)"></path>
                        <path d="M299.954331,367.326665 C299.930164,367.96084 300.423969,368.494289 301.057942,368.518463 C301.691914,368.542638 302.224386,368.048674 302.249358,367.414498 C302.272719,366.780323 301.778914,366.246874 301.145747,366.222699 C300.511775,366.199331 299.978497,366.693295 299.954331,367.326665" id="Fill-68" fill="#0A0005" mask="url(#mask-8)"></path>
                        <path d="M272.984733,435.004803 L266.363872,362.805484 C281.551011,420.803943 325.382094,438.091876 325.382094,438.091876 L274.180983,436.139389 C273.554261,436.11602 273.041928,435.630114 272.984733,435.004803" id="Fill-69" fill="#0A0205" mask="url(#mask-8)"></path>
                        <path d="M341.943108,346.739004 L335.082192,387.285145 C335.081386,387.282728 327.375442,353.996971 288.466303,341.877529 L339.576386,343.825987 C341.082775,343.8832 342.194442,345.252278 341.943108,346.739004" id="Fill-70" fill="#FFFFFF" mask="url(#mask-8)"></path>
                        <path d="M294.742144,446.410535 L256.0787,459.86924 L241.367644,422.268349 L284.15795,380.244346 L341.681867,358.650949 C341.681867,358.650949 346.694033,367.51732 321.141811,378.296693 L292.642061,396.238947 L323.888756,390.433863 L341.039839,388.009975 C341.039839,388.009975 346.056033,397.948884 319.894811,403.9941 C319.894811,403.9941 296.110783,415.631665 298.053783,415.662286 C300.190117,415.696131 318.645394,408.704083 318.645394,408.704083 L337.5107,404.945767 C337.5107,404.945767 341.673006,413.455968 318.278867,420.87832 L300.968283,430.41674 L321.960256,427.020234 L331.398144,426.740617 C331.398144,426.740617 333.441033,435.095296 314.6007,437.652949 L294.742144,446.410535 Z" id="Fill-71" fill="#EEB1A3" mask="url(#mask-8)"></path>
                        <path d="M318.645717,408.704083 L337.511022,404.945767 C337.511022,404.945767 341.673328,413.455968 318.279189,420.87832 C324.373217,410.030453 318.645717,408.704083 318.645717,408.704083" id="Fill-72" fill="#E89785" mask="url(#mask-8)"></path>
                        <path d="M341.04,388.010217 C341.04,388.010217 346.056194,397.94832 319.894972,403.994342 C327.368111,395.248037 323.888917,390.434105 323.888917,390.434105 L341.04,388.010217 Z" id="Fill-73" fill="#E89785" mask="url(#mask-8)"></path>
                        <path d="M321.959933,427.019831 L331.398628,426.740214 C331.398628,426.740214 333.440711,435.094893 314.600378,437.652546 C325.467322,432.861177 321.959933,427.019831 321.959933,427.019831" id="Fill-74" fill="#E89785" mask="url(#mask-8)"></path>
                        <path d="M268.518733,386.2255 L259.123539,396.90737 L241.592233,422.27681 C241.592233,422.27681 268.046678,416.081713 267.273344,415.077668 C266.500011,414.07443 269.323483,395.000814 269.323483,395.000814 L268.518733,386.2255 Z" id="Fill-75" fill="#EEB1A3" mask="url(#mask-8)"></path>
                        <path d="M241.592394,422.277052 L151.3597,495.473968 C151.3597,495.473968 146.392644,532.571225 155.696811,551.926876 C165.000978,571.281722 212.403089,545.234592 212.403089,545.234592 L256.0787,459.869079 L241.592394,422.277052 Z" id="Fill-76" fill="#EEB1A3" mask="url(#mask-8)"></path>
                        <path d="M315.745233,588.811398 C315.745233,581.800817 343.527233,576.116605 377.797983,576.116605 L377.797983,601.505386 C343.527233,601.505386 315.745233,595.82198 315.745233,588.811398" id="Fill-77" fill="#0A0005" mask="url(#mask-8)"></path>
                        <path d="M339.288078,569.075242 C338.64605,569.781941 337.897689,570.445126 337.113078,571.057544 C336.3188,571.661099 335.478606,572.212276 334.612633,572.676425 C333.744244,573.136544 332.854106,573.525752 331.963967,573.807787 C331.073022,574.088211 330.186106,574.267101 329.330606,574.338819 C328.464633,574.400866 327.542272,574.375886 326.650522,574.240509 C324.854939,573.977814 323.07305,573.290455 321.449856,572.214693 C320.639467,571.677215 319.854856,571.063185 319.128244,570.357292 C318.402439,569.650593 317.716106,568.877012 317.087772,568.038965 C316.4683,567.192055 315.903606,566.28632 315.379994,565.344323 C314.881356,564.385405 314.400439,563.404729 314.004911,562.370064 C313.180828,560.319268 312.601633,558.119395 312.214161,555.86634 C311.825883,553.611672 311.614022,551.294151 311.594689,548.954068 C311.614022,546.61479 311.825883,544.297269 312.214161,542.041795 C312.601633,539.78874 313.180828,537.589673 314.004911,535.538071 C314.400439,534.504212 314.881356,533.52273 315.379994,532.563812 C315.903606,531.621815 316.4683,530.71608 317.087772,529.869976 C317.716106,529.031929 318.402439,528.258348 319.128244,527.550843 C319.854856,526.845756 320.639467,526.23092 321.449856,525.694248 C323.07305,524.61768 324.854939,523.930321 326.650522,523.667626 C327.542272,523.532249 328.464633,523.507269 329.330606,523.568511 C330.186106,523.641034 331.073022,523.819925 331.963967,524.100348 C332.854106,524.382383 333.744244,524.772397 334.612633,525.231711 C335.478606,525.696665 336.3188,526.247036 337.113078,526.851397 C337.897689,527.463009 338.64605,528.126194 339.288078,528.833699 C339.930106,529.527505 340.489967,530.280941 340.8138,530.926398 L350.145356,524.048776 C348.983744,522.685338 347.798772,521.634557 346.585606,520.66194 C345.365994,519.703827 344.118189,518.855305 342.813189,518.104286 C341.516244,517.345209 340.166939,516.680413 338.761244,516.112314 C337.357967,515.538575 335.894272,515.068785 334.364522,514.735178 C332.840411,514.391901 331.2438,514.190448 329.604494,514.189642 C327.974856,514.200923 326.395967,514.383037 324.841244,514.744848 C323.293772,515.105852 321.796244,515.63769 320.388939,516.315379 C318.98405,516.997904 317.670189,517.822251 316.456217,518.743297 C315.246272,519.668371 314.129772,520.688532 313.134106,521.790885 C312.137633,522.893238 311.253939,524.067309 310.447578,525.272807 C309.654911,526.485557 308.962939,527.741821 308.343467,529.019036 C307.7538,530.305921 307.210856,531.606505 306.780689,532.930457 C305.035856,538.224655 304.442161,543.651812 304.490494,548.954068 C304.442161,554.256323 305.035856,559.68348 306.780689,564.978484 C307.210856,566.302436 307.7538,567.602214 308.343467,568.889099 C308.962939,570.166314 309.654911,571.422578 310.447578,572.636134 C311.253939,573.841632 312.137633,575.014897 313.134106,576.11725 C314.129772,577.219604 315.246272,578.239764 316.456217,579.164838 C317.670189,580.085078 318.98405,580.910232 320.388939,581.59195 C321.796244,582.271251 323.293772,582.802283 324.841244,583.162482 C326.395967,583.525904 327.974856,583.707212 329.604494,583.719299 C331.2438,583.718493 332.840411,583.51704 334.364522,583.172957 C335.894272,582.83935 337.357967,582.370366 338.761244,581.795821 C340.166939,581.228528 341.516244,580.563732 342.813189,579.803849 C344.118189,579.053636 345.365994,578.203502 346.585606,577.247001 C347.798772,576.274384 348.983744,575.223602 350.145356,573.859359 L340.8138,566.980932 C340.489967,567.626388 339.930106,568.381436 339.288078,569.075242" id="Fill-78" fill="#35B6B4" mask="url(#mask-8)"></path>
                        <path d="M340.204558,508.212678 L340.204558,588.393584 C340.204558,595.635434 357.037447,601.504983 377.798225,601.504983 C398.327003,601.504983 415.012475,595.767587 415.381419,588.638551 C409.031225,590.352518 401.065086,591.370261 392.418253,591.370261 C371.657475,591.370261 354.824586,585.497489 354.824586,578.255639 L354.824586,508.212678 L340.204558,508.212678 Z" id="Fill-79" fill="#35B6B4" mask="url(#mask-8)"></path>
                        <path d="M354.352128,508.212678 L354.430267,585.724728 C354.430267,592.967384 370.958656,595.178537 388.815406,595.178537 C406.672961,595.178537 415.381822,588.638551 415.381822,588.638551 C415.381822,588.638551 415.390683,588.474971 415.390683,588.393584 L415.390683,508.212678 L354.352128,508.212678 Z" id="Fill-80" fill="#35B6B4" mask="url(#mask-8)"></path>
                        <path d="M415.391006,508.212678 L415.507006,587.60308 C415.507006,591.712732 410.088839,595.379991 401.609561,597.783734 C401.563644,595.624153 401.234978,594.506489 401.234978,587.264639 L400.886172,507.42298 L415.391006,508.212678 Z" id="Fill-81" fill="#41CEC3" mask="url(#mask-8)"></path>
                        <path d="M415.392617,508.211147 C415.392617,512.482767 398.560533,515.946155 377.79895,515.946155 C357.037367,515.946155 340.205283,512.482767 340.205283,508.211147 C340.205283,503.939527 357.037367,500.476945 377.79895,500.476945 C398.560533,500.476945 415.392617,503.939527 415.392617,508.211147" id="Fill-82" fill="#FFFFFF" mask="url(#mask-8)"></path>
                        <path d="M345.122072,510.365732 C346.140294,510.941889 349.943322,512.816213 360.284239,513.900032 C360.34385,510.168308 370.3126,507.081235 383.307017,506.538922 C381.512239,506.483321 379.670739,506.454312 377.799433,506.454312 C363.799683,506.454312 351.590683,508.028066 345.122072,510.365732" id="Fill-83" fill="#31292D" mask="url(#mask-8)"></path>
                        <path d="M354.905947,513.386004 C359.404169,513.856599 370.519225,514.693034 377.799836,514.693034 C401.819086,514.693034 409.015114,511.192578 410.478003,510.365813 C404.873753,508.340803 394.961392,506.889532 383.307419,506.539003 C370.313003,507.081315 354.964753,509.654279 354.905947,513.386004" id="Fill-84" fill="#0A0005" mask="url(#mask-8)"></path>
                        <path d="M412.742339,508.212678 C412.742339,512.492356 387.740311,514.379572 377.79895,514.379572 C367.857589,514.379572 342.855561,512.492356 342.855561,508.212678 C342.855561,503.514783 367.857589,501.732322 377.79895,501.731517 C387.740311,501.732322 412.742339,503.514783 412.742339,508.212678 M415.391006,508.212678 C415.391006,503.941058 398.562144,500.47767 377.79895,500.47767 C357.035756,500.47767 340.206894,503.941058 340.206894,508.212678 C340.206894,509.271518 341.240422,510.280397 343.113339,511.202248 C348.790089,513.987947 362.18245,515.94688 377.79895,515.94688 C393.41545,515.94688 406.807811,513.987947 412.484561,511.202248 C414.357478,510.280397 415.391006,509.271518 415.391006,508.212678" id="Fill-85" fill="#E4E3E3" mask="url(#mask-8)"></path>
                        <path d="M374.810419,504.599167 C381.592392,503.331621 382.859531,497.365375 382.859531,495.128435 C382.859531,487.982477 377.389808,487.730257 376.528669,482.518253 C373.305642,463.013526 410.478003,460.461513 410.478003,439.711804 C410.478003,409.667031 355.899197,414.348004 357.848642,397.941632 C357.848642,397.941632 349.619892,405.923219 349.619892,415.381863 C349.619892,424.840507 360.807447,431.085565 360.807447,442.914108 C360.807447,454.742652 349.619086,456.778138 349.619086,468.099824 C349.619086,485.616607 373.146142,491.700503 376.073531,498.487874 C377.732169,502.331606 374.810419,504.599167 374.810419,504.599167" id="Fill-86" fill="#FFFFFF" mask="url(#mask-8)"></path>
                    </g>
                </g>
            </g>
        </g>
    </g>
</svg>